# xmcd CD database file
#
# Track frame offsets:
#	150
#	16025
#	30347
#	46125
#	57632
#	74395
#	89502
#	102630
#	118532
#	130627
#	144747
#	161465
#	175570
#	192640
#
# Disc length: 2798 seconds
#
# Revision: 0
# Processed by: cddbd v1.4PL0 Copyright (c) Steve Scherf et al.
# Submitted via: CDex 1.40Release
#
DISCID=bc0aec0e
DTITLE=Carry and Ron - Mission Of Love
DYEAR=1900
DGENRE=Country
TTITLE0=Mission Of Love
TTITLE1=Just What The Doctor Ordered
TTITLE2=Break Down The Wall
TTITLE3=I Can´t Get Over You
TTITLE4=Make Room For Me
TTITLE5=No More Women
TTITLE6=Lady Trucker
TTITLE7=Bitter Blue
TTITLE8=Louisiana Daydream
TTITLE9=Roulette Wheel
TTITLE10=A Friend Like This
TTITLE11=Something Borrowed
TTITLE12=What Do Mama´s Know
TTITLE13=Friendly Fire (Bonus Mix)
EXTD=ID3G: 2
EXTT0=
EXTT1=
EXTT2=
EXTT3=
EXTT4=
EXTT5=
EXTT6=
EXTT7=
EXTT8=
EXTT9=
EXTT10=
EXTT11=
EXTT12=
EXTT13=
PLAYORDER=
